<svg xmlns="http://www.w3.org/2000/svg" width="205" height="165" viewBox="0 0 205 165">
    <g fill="none" fill-rule="evenodd">
        <path d="M-1100-630H340V62h-1440z"/>
        <path fill="#373A44" d="M77.299 115.576v5.02h2.84c1.66 0 2.633-.95 2.633-2.51 0-1.528-1.027-2.51-2.666-2.51H77.3zm0 7.41v5.763H74V113h6.456c3.627 0 5.702 1.91 5.702 5.02 0 2.02-1.049 3.766-2.862 4.475l3.32 6.254h-3.735l-2.938-5.763h-2.644zm15.894-3.83c-1.398 0-2.403 1.058-2.512 2.52h4.97c-.066-1.495-1.038-2.52-2.458-2.52zm2.502 6.013h2.927c-.35 2.292-2.447 3.831-5.342 3.831-3.604 0-5.767-2.303-5.767-6.046 0-3.733 2.184-6.156 5.647-6.156 3.408 0 5.56 2.303 5.56 5.86v.972h-8.072v.197c0 1.67 1.06 2.816 2.687 2.816 1.169 0 2.065-.579 2.36-1.474zm9.186 1.463c1.388 0 2.535-.906 2.535-2.172v-.852l-2.47.153c-1.19.088-1.867.622-1.867 1.452 0 .873.72 1.419 1.802 1.419zm-1.048 2.303c-2.229 0-3.922-1.441-3.922-3.548 0-2.128 1.639-3.361 4.555-3.536l2.95-.174v-.775c0-1.092-.765-1.725-1.967-1.725-1.19 0-1.944.59-2.097 1.452h-2.917c.12-2.27 2.054-3.83 5.156-3.83 3.004 0 4.96 1.549 4.96 3.906v8.044h-3.08v-1.79h-.066c-.656 1.244-2.109 1.976-3.572 1.976zm19.411-7.531h-2.96c-.186-1.233-1.005-2.107-2.316-2.107-1.573 0-2.556 1.332-2.556 3.591 0 2.303.983 3.613 2.567 3.613 1.278 0 2.108-.764 2.305-2.041h2.971c-.164 2.761-2.228 4.54-5.309 4.54-3.528 0-5.768-2.292-5.768-6.112 0-3.754 2.24-6.09 5.746-6.09 3.168 0 5.178 1.954 5.32 4.606zm2.403-7.05h3.19v2.695H131v2.401h-2.163v5.6c0 .894.437 1.32 1.376 1.32.285 0 .58-.022.776-.055v2.347c-.328.076-.874.13-1.518.13-2.753 0-3.824-.916-3.824-3.197v-6.145h-1.65v-2.4h1.65v-2.697z"/>
        <g fill="#60DBFB" fill-rule="nonzero" transform="translate(65 29)">
            <ellipse cx="37.24" cy="32.939" rx="6.844" ry="6.835"/>
            <path d="M37.24 20.7c-8.955 0-17.563 1.28-23.954 3.505C6.35 26.62 2.192 30.172 2.192 32.94c0 2.917 4.526 6.788 11.794 9.268 5.971 2.038 14.146 3.107 23.254 3.107 8.671 0 16.754-1.09 22.796-3.089 7.583-2.508 12.252-6.347 12.252-9.286 0-2.757-4.323-6.36-11.412-8.797-6.388-2.196-14.79-3.441-23.636-3.441zm0-3.314c9.186 0 17.942 1.297 24.69 3.617 8.283 2.847 13.636 7.307 13.636 11.936 0 4.827-5.72 9.529-14.511 12.438-6.402 2.117-14.82 3.252-23.815 3.252-9.437 0-17.95-1.112-24.302-3.28-8.456-2.887-14.023-7.647-14.023-12.41 0-4.612 5.186-9.042 13.305-11.869 6.757-2.352 15.721-3.684 25.02-3.684z"/>
            <path d="M37.24 20.042c-9.023 0-17.702 1.29-24.166 3.54-7.17 2.497-11.533 6.223-11.533 9.357 0 3.284 4.733 7.331 12.236 9.892 6.048 2.064 14.29 3.142 23.463 3.142 8.735 0 16.885-1.099 22.998-3.121 7.823-2.589 12.702-6.599 12.702-9.913 0-3.13-4.528-6.902-11.854-9.42-6.46-2.221-14.933-3.477-23.846-3.477zm0-1.998c9.119 0 17.804 1.288 24.481 3.583 8.045 2.766 13.193 7.055 13.193 11.312 0 4.452-5.51 8.982-14.062 11.811-6.33 2.095-14.682 3.22-23.612 3.22-9.372 0-17.818-1.104-24.094-3.246C4.926 41.92-.434 37.336-.434 32.94c0-4.246 4.982-8.501 12.866-11.246 6.684-2.327 15.577-3.649 24.808-3.649z"/>
            <path d="M17.62 49.322c-1.369 7.199-.367 12.557 2.044 13.945 2.555 1.471 8.184-.514 13.97-5.565 4.75-4.145 9.757-10.68 14.306-18.555 4.329-7.496 7.42-15.027 8.703-21.246 1.61-7.805.615-13.748-1.945-15.222-2.416-1.391-7.71.553-13.371 5.471-5.094 4.427-10.37 11.07-14.786 18.718-4.471 7.742-7.66 15.821-8.92 22.454zM39.192 5.635C45.794-.102 52.328-2.5 56.319-.202c4.178 2.405 5.402 9.716 3.532 18.78-1.362 6.602-4.586 14.457-9.082 22.242-4.716 8.167-9.937 14.979-14.994 19.392-6.723 5.869-13.623 8.302-17.732 5.937-3.991-2.299-5.246-9.01-3.64-17.453 1.335-7.026 4.66-15.452 9.308-23.501 4.592-7.95 10.094-14.878 15.48-19.56z"/>
            <path d="M16.98 49.198c-1.415 7.446-.363 13.073 2.362 14.642 2.864 1.649 8.745-.425 14.718-5.64 4.81-4.198 9.86-10.787 14.442-18.72 4.362-7.554 7.48-15.15 8.778-21.444 1.662-8.055.621-14.27-2.26-15.93-2.729-1.571-8.27.463-14.117 5.545-5.153 4.477-10.473 11.177-14.924 18.884-4.507 7.803-7.722 15.952-8.998 22.663zM39.617 6.135C46.03.56 52.318-1.748 55.997.37c3.856 2.22 5.035 9.26 3.216 18.074-1.346 6.526-4.543 14.316-9.006 22.043-4.683 8.11-9.862 14.866-14.857 19.226-6.537 5.707-13.185 8.051-16.985 5.863-3.677-2.118-4.882-8.56-3.323-16.755 1.32-6.949 4.618-15.306 9.232-23.294 4.556-7.89 10.013-14.761 15.342-19.392z"/>
            <path d="M41.582 58.101c5.573 4.789 10.745 6.606 13.167 5.205 2.538-1.467 3.623-7.304 2.133-14.82-1.224-6.175-4.391-13.769-8.953-21.636-4.342-7.49-9.333-13.926-14.09-18.144-5.978-5.3-11.654-7.416-14.225-5.93-2.4 1.388-3.354 6.916-1.916 14.255 1.296 6.615 4.424 14.495 8.853 22.134 4.485 7.735 9.904 14.53 15.031 18.936zM23.724 40.842c-4.605-7.943-7.869-16.165-9.24-23.166C12.8 9.085 13.986 2.211 17.988-.102c4.159-2.404 11.09.18 18.01 6.315 5.046 4.473 10.25 11.183 14.758 18.96 4.731 8.16 8.034 16.08 9.34 22.662 1.736 8.761.397 15.97-3.721 18.35-3.974 2.297-10.402.039-16.914-5.557-5.426-4.663-11.075-11.745-15.737-19.786z"/>
            <path d="M41.16 58.603c5.76 4.95 11.181 6.854 13.912 5.275 2.852-1.648 3.987-7.758 2.449-15.521-1.24-6.256-4.435-13.915-9.03-21.84-4.375-7.547-9.409-14.038-14.223-18.306-6.165-5.467-12.09-7.675-14.977-6.007-2.719 1.572-3.719 7.367-2.232 14.956 1.311 6.69 4.467 14.639 8.93 22.338 4.52 7.796 9.985 14.648 15.172 19.105zM24.287 40.51c-4.57-7.883-7.807-16.037-9.164-22.961C13.488 9.205 14.627 2.599 18.311.47c3.844-2.222 10.526.269 17.259 6.238 4.988 4.423 10.15 11.079 14.624 18.798 4.698 8.102 7.974 15.957 9.263 22.458 1.687 8.514.399 15.45-3.405 17.649-3.666 2.119-9.844-.052-16.17-5.487-5.366-4.612-10.97-11.637-15.596-19.617z"/>
        </g>
    </g>
</svg>
