<svg xmlns="http://www.w3.org/2000/svg" width="170" height="170" viewBox="0 0 170 170">
    <g fill="none" fill-rule="evenodd">
        <path fill="#575FCF" d="M148 85c0 34.794-28.206 63-63 63s-63-28.206-63-63 28.206-63 63-63 63 28.206 63 63"/>
        <path fill="#FFF1CC" d="M127.5 85c0 23.472-19.028 42.5-42.5 42.5-23.473 0-42.5-19.028-42.5-42.5S61.527 42.5 85 42.5c23.472 0 42.5 19.028 42.5 42.5"/>
        <g fill="#FBE45A">
            <path d="M83.491 148h3V22h-3zM95.491 148h3V22h-3zM107.542 148h3V22h-3zM119.508 148h3V22h-3zM71.491 148h3V22h-3zM59.491 148h3V22h-3zM47.491 148h3V22h-3z"/>
        </g>
        <path fill="#222" d="M102.5 85c0 9.665-7.835 17.5-17.5 17.5S67.5 94.665 67.5 85 75.335 67.5 85 67.5s17.5 7.835 17.5 17.5"/>
    </g>
</svg>
