<svg xmlns="http://www.w3.org/2000/svg" xmlns:xlink="http://www.w3.org/1999/xlink" width="181" height="43" viewBox="0 0 181 43">
    <defs>
        <path id="a" d="M.276.11H10.49v14.384H.276z"/>
        <path id="c" d="M.056.328h27.98v22.994H.055z"/>
        <path id="e" d="M.281.115h16.472v16.464H.28z"/>
        <path id="g" d="M0 .318h49.537V26.55H0z"/>
    </defs>
    <g fill="none" fill-rule="evenodd">
        <g transform="translate(1.456 28.178)">
            <mask id="b" fill="#fff">
                <use xlink:href="#a"/>
            </mask>
            <path fill="#231F20" d="M6.402.11L.516 11.4a2.113 2.113 0 0 0 .909 2.856 2.127 2.127 0 0 0 2.867-.904L10.49 1.466c-.078-.018-.16-.034-.237-.05A19.72 19.72 0 0 1 6.402.11" mask="url(#b)"/>
        </g>
        <path fill="#231F20" d="M46.71 38.736L36.792 21.35c-2.404 2.18-4.896 3.97-7.467 5.361 6.325 5.897 12.267 12.42 13.9 14.424.695.854 1.94 1.014 2.847.39a2.113 2.113 0 0 0 .64-2.789"/>
        <g transform="translate(5.338 .155)">
            <mask id="d" fill="#fff">
                <use xlink:href="#c"/>
            </mask>
            <path fill="#231F20" d="M20.16 1.4a2.131 2.131 0 0 0-3.738.07l-5.35 10.26c-1.213-.616-2.764-2.09-6.164-1.986 0 0-5.692.769-4.746 5.378 0 0-.937-4.01 8.944.38l-3.377 6.444c.677.264 1.101.883 4.094 1.376l2.987-5.73c1.997 1.197 3.702 1.845 6.065 3.84.4-.168 4.596-1.656 9.16-6.23L20.16 1.4z" mask="url(#d)"/>
        </g>
        <path fill="#231F20" d="M61.03 28.233a5.4 5.4 0 0 0 1.942-1.999c.474-.837.712-1.75.712-2.738a5.52 5.52 0 0 0-.712-2.77 5.409 5.409 0 0 0-1.942-1.999 5.11 5.11 0 0 0-2.686-.74c-.97 0-1.866.247-2.686.74a5.529 5.529 0 0 0-1.958 1.998 5.42 5.42 0 0 0-.727 2.771c0 .989.242 1.901.727 2.738a5.52 5.52 0 0 0 1.958 1.999c.82.494 1.715.74 2.686.74.971 0 1.867-.246 2.686-.74m5.081-12.246c.28.28.421.624.421 1.032V29.94c0 .409-.14.752-.42 1.031-.282.28-.627.42-1.037.42-.41 0-.755-.14-1.035-.42-.28-.279-.42-.622-.42-1.03v-1.128a8.073 8.073 0 0 1-2.622 2.126 7.046 7.046 0 0 1-3.236.772 7.107 7.107 0 0 1-3.867-1.11 8.067 8.067 0 0 1-2.8-2.996c-.69-1.257-1.036-2.626-1.036-4.109 0-1.504.345-2.884 1.036-4.141a8.048 8.048 0 0 1 2.8-2.996 7.1 7.1 0 0 1 3.867-1.112c1.143 0 2.221.258 3.236.774a8.066 8.066 0 0 1 2.622 2.126v-1.128c0-.408.14-.751.42-1.032.28-.278.625-.417 1.035-.417.41 0 .755.14 1.036.417M76.046 31.648c-.26 0-.508-.075-.744-.226a1.558 1.558 0 0 1-.55-.58l-6.473-13.243a1.294 1.294 0 0 1-.162-.644c0-.279.07-.536.21-.773.14-.236.34-.408.599-.516.259-.107.475-.161.648-.161.28 0 .538.07.776.21.237.14.41.338.518.595l5.21 10.602 5.178-10.602a1.41 1.41 0 0 1 .55-.595c.237-.14.486-.21.744-.21.432 0 .783.145 1.052.435.27.29.405.628.405 1.015 0 .237-.044.45-.13.644l-6.472 13.179c-.13.322-.378.57-.744.74-.259.087-.464.13-.615.13M88.666 19.29c-.926.871-1.498 1.95-1.714 3.24h9.935c-.215-1.29-.792-2.369-1.731-3.24-.94-.87-2.022-1.304-3.252-1.304s-2.31.435-3.238 1.304m7.235-2.93a8.15 8.15 0 0 1 2.896 2.995 8.191 8.191 0 0 1 1.067 4.108v.355a1.428 1.428 0 0 1-.453.983c-.28.269-.614.402-1.003.402H87.081c.301 1.204.917 2.133 1.845 2.788.927.655 2.072.983 3.43.983.733 0 1.516-.108 2.347-.323.83-.214 1.634-.515 2.41-.903.174-.064.335-.095.486-.095.367 0 .684.133.954.403.27.268.406.595.406.982 0 .279-.082.531-.243.757a1.431 1.431 0 0 1-.632.499c-1.942.946-3.85 1.418-5.728 1.418-1.66 0-3.123-.338-4.385-1.015a7.232 7.232 0 0 1-2.945-2.884c-.702-1.245-1.052-2.694-1.052-4.35 0-1.482.356-2.852 1.068-4.108a8.14 8.14 0 0 1 2.897-2.995 7.477 7.477 0 0 1 3.965-1.113c1.445 0 2.777.37 3.997 1.113M114.04 16.198a7.157 7.157 0 0 1 2.571 2.562 6.82 6.82 0 0 1 .956 3.544v7.636c0 .409-.14.752-.42 1.031-.282.28-.628.419-1.036.419-.41 0-.756-.14-1.037-.419-.28-.28-.42-.622-.42-1.03v-6.962c0-.9-.217-1.733-.647-2.496a4.939 4.939 0 0 0-1.764-1.82 4.622 4.622 0 0 0-2.444-.677c-.885 0-1.705.225-2.459.677a4.885 4.885 0 0 0-1.78 1.82 4.982 4.982 0 0 0-.648 2.496v6.961a1.4 1.4 0 0 1-.42 1.031c-.28.28-.626.419-1.036.419-.41 0-.756-.14-1.035-.419a1.395 1.395 0 0 1-.42-1.03V17.018c0-.408.14-.75.42-1.032a1.41 1.41 0 0 1 1.035-.418c.41 0 .756.14 1.036.418.28.281.42.624.42 1.032v.87a7.264 7.264 0 0 1 2.444-1.933c.96-.473 2-.709 3.123-.709 1.294 0 2.48.317 3.56.95M129.961 28.555a6.097 6.097 0 0 0 1.78-1.097c.237-.192.518-.29.841-.29.389 0 .718.135.988.404.269.268.405.585.405.95 0 .43-.163.785-.486 1.064a8.398 8.398 0 0 1-2.557 1.546 8.148 8.148 0 0 1-2.945.549c-1.511 0-2.896-.372-4.159-1.113a8.372 8.372 0 0 1-3.01-2.996 7.926 7.926 0 0 1-1.115-4.109c0-1.482.372-2.851 1.116-4.108a8.36 8.36 0 0 1 3.01-2.996c1.262-.742 2.647-1.112 4.158-1.112a8.101 8.101 0 0 1 5.502 2.127c.323.259.486.602.486 1.031 0 .386-.136.714-.405.982-.27.27-.599.403-.988.403-.302 0-.582-.106-.841-.322a6.134 6.134 0 0 0-1.78-1.095 5.3 5.3 0 0 0-1.974-.387 5.11 5.11 0 0 0-2.686.741 5.52 5.52 0 0 0-1.957 1.998 5.36 5.36 0 0 0-.729 2.738c0 .988.243 1.902.729 2.74A5.523 5.523 0 0 0 125.3 28.2a5.11 5.11 0 0 0 2.686.74c.67 0 1.327-.127 1.974-.385M140.802 19.29c-.927.871-1.5 1.95-1.715 3.24h9.935c-.215-1.29-.792-2.369-1.731-3.24-.939-.87-2.023-1.304-3.252-1.304-1.23 0-2.31.435-3.237 1.304m7.233-2.93a8.143 8.143 0 0 1 2.897 2.995A8.201 8.201 0 0 1 152 23.463v.355a1.427 1.427 0 0 1-.454.983c-.28.269-.614.402-1.003.402h-11.327c.302 1.204.916 2.133 1.845 2.788.928.655 2.072.983 3.431.983.733 0 1.516-.108 2.346-.323a12.2 12.2 0 0 0 2.41-.903c.173-.064.335-.095.486-.095.367 0 .685.133.955.403.27.268.405.595.405.982 0 .279-.081.531-.244.757a1.42 1.42 0 0 1-.63.499c-1.942.946-3.852 1.418-5.728 1.418-1.662 0-3.124-.338-4.385-1.015a7.234 7.234 0 0 1-2.946-2.884c-.701-1.245-1.05-2.694-1.05-4.35 0-1.482.355-2.852 1.067-4.108a8.137 8.137 0 0 1 2.896-2.995 7.482 7.482 0 0 1 3.965-1.113c1.445 0 2.777.37 3.996 1.113M162.792 15.682c.292.29.437.639.437 1.047 0 .366-.124.688-.372.967-.248.28-.556.44-.922.484a5.366 5.366 0 0 0-3.48 1.755c-.938 1.021-1.407 2.336-1.407 3.948v6.057a1.4 1.4 0 0 1-.42 1.031c-.282.28-.627.42-1.036.42-.41 0-.756-.14-1.037-.42a1.4 1.4 0 0 1-.42-1.03V16.986c0-.387.14-.724.42-1.015.28-.29.626-.435 1.037-.435.409 0 .754.145 1.035.435.28.29.421.628.421 1.015v.709a7.513 7.513 0 0 1 2.169-1.756c.819-.44 1.649-.671 2.492-.693.43 0 .792.145 1.083.435"/>
        <g transform="translate(164.016 15.133)">
            <mask id="f" fill="#fff">
                <use xlink:href="#e"/>
            </mask>
            <path fill="#231F20" d="M11.252 13.1a5.403 5.403 0 0 0 1.941-1.999 5.45 5.45 0 0 0 .712-2.738c0-1.01-.237-1.934-.712-2.77a5.411 5.411 0 0 0-1.94-1.998 5.113 5.113 0 0 0-2.687-.741 5.11 5.11 0 0 0-2.686.74 5.53 5.53 0 0 0-1.958 1.999 5.425 5.425 0 0 0-.728 2.77c0 .989.242 1.902.728 2.738a5.521 5.521 0 0 0 1.958 2c.82.493 1.715.74 2.686.74.97 0 1.866-.247 2.686-.74M16.332.854c.28.28.421.624.421 1.032v12.92c0 .41-.14.752-.42 1.032-.28.279-.626.419-1.037.419-.41 0-.754-.14-1.035-.42-.28-.279-.42-.622-.42-1.03V13.68a8.062 8.062 0 0 1-2.622 2.126 7.044 7.044 0 0 1-3.236.773 7.106 7.106 0 0 1-3.867-1.11c-1.178-.743-2.11-1.741-2.8-2.997C.626 11.215.281 9.846.281 8.363c0-1.503.345-2.884 1.035-4.14.69-1.257 1.622-2.256 2.8-2.996A7.099 7.099 0 0 1 7.983.115c1.143 0 2.222.257 3.236.773a8.056 8.056 0 0 1 2.622 2.126V1.887c0-.408.14-.752.42-1.032.28-.278.625-.418 1.035-.418.411 0 .757.14 1.036.418" mask="url(#f)"/>
        </g>
        <g transform="translate(0 2.088)">
            <mask id="h" fill="#fff">
                <use xlink:href="#g"/>
            </mask>
            <path fill="#231F20" d="M49.513 8.476A61.752 61.752 0 0 0 47.39.866a.793.793 0 0 0-1.047-.494 50.4 50.4 0 0 1-7.067 2.015.963.963 0 0 0-.623.444.945.945 0 0 0-.128.619c.06.406.115.817.165 1.228.029.24.149.453.34.597.188.142.427.199.669.155a52.62 52.62 0 0 0 2.448-.5c-.007.01-.017.018-.024.03-4.928 7.258-10.35 12.334-16.117 15.085-5.729 2.732-10.452 2.578-13.374 1.832-7.049-1.797-8.238-5.646-8.367-6.836-.702-6.523 2.864-7.246 3.833-7.322-1.537.047-2.927.374-4.171 1.07-2.874 1.605-4.278 4.22-3.85 7.17.65 4.503 5.422 8.635 11.603 10.047 1.454.333 3.256.58 5.337.54 3.072-.057 6.753-.737 10.828-2.68 6.458-3.082 12.448-8.644 17.803-16.534.03-.042.046-.088.071-.131.032-.044.064-.088.092-.138.21.91.4 1.834.572 2.769a.8.8 0 0 0 .397.578c.21.113.462.12.715.017.429-.176.857-.359 1.286-.546.23-.102.435-.29.575-.528.16-.278.219-.598.158-.877" mask="url(#h)"/>
        </g>
    </g>
</svg>
