<svg width="1439" height="447" viewBox="0 0 1439 447" xmlns="http://www.w3.org/2000/svg" xmlns:xlink="http://www.w3.org/1999/xlink">
    <defs>
        <path d="M1215.907 0c-122.291 0-221.586 98.47-223.074 220.502h-.035v96.08L739.85 159.878l-.135.156v-.156H585.468v110.26H409.246v120.969H275.562v-.077c0-72.836-56.461-132.47-127.972-137.477 47.14-4.88 83.903-44.749 83.903-93.216H44.19c0 48.467 36.76 88.336 83.9 93.216C56.581 258.56.12 318.192.12 391.03v55.525h275.427v-.076h133.7v.076H739.715v-.251l.135.251h699.166V220.502h-.035C1437.494 98.47 1338.2 0 1215.907 0z" id="fv30gcm81a"/>
    </defs>
    <g fill="none" fill-rule="evenodd">
        <path d="M1438.983 220.501C1437.494 98.47 1338.2.001 1215.908.001 1093.616 0 994.322 98.47 992.834 220.5h-.035v96.082l-252.95-156.705-.132.155v-.155H585.468v110.26h-176.22v120.968H275.562v-.076c0-72.837-56.461-132.47-127.973-137.477 47.14-4.88 83.902-44.75 83.902-93.215H44.191c0 48.466 36.76 88.335 83.9 93.215C56.582 258.56.12 318.193.12 391.03v55.525h275.426v-.077h133.701v.077H739.716v-.252l.134.252h699.167V220.5h-.034z" fill="#222"/>
        <mask id="c4frosft7b" fill="#fff">
            <use xlink:href="#fv30gcm81a"/>
        </mask>
        <path fill="#4834D4" mask="url(#c4frosft7b)" d="M945.678 446.554h446.554V0H945.678zM843.458 238.01c0 91.342-74.047 165.39-165.39 165.39-91.343 0-165.39-74.048-165.39-165.39 0-91.344 74.047-165.391 165.39-165.391 91.343 0 165.39 74.047 165.39 165.39M0 446.95l226.1-226.102 226.102 226.103z"/>
        <path d="M799.354 238.01c0 66.984-54.301 121.286-121.286 121.286S556.78 304.994 556.78 238.009c0-66.984 54.302-121.286 121.287-121.286 66.985 0 121.286 54.302 121.286 121.286" fill="#FFD32A" mask="url(#c4frosft7b)"/>
        <path fill="#FF3F34" mask="url(#c4frosft7b)" d="m1322.702 223.277-153.747 153.747-153.748-153.747L1168.955 69.53z"/>
        <path fill="#34E7E4" mask="url(#c4frosft7b)" d="M110.327 446.95 226.1 331.178l115.774 115.774z"/>
    </g>
</svg>
