<svg xmlns="http://www.w3.org/2000/svg" xmlns:xlink="http://www.w3.org/1999/xlink" width="179" height="43" viewBox="0 0 179 43">
    <defs>
        <path id="a" d="M.273.11h10.1v14.384H.273z"/>
        <path id="c" d="M.055.328h27.67v22.994H.056z"/>
        <path id="e" d="M.278.114h16.29V16.58H.278z"/>
        <path id="g" d="M0 .318h48.99V26.55H0z"/>
    </defs>
    <g fill="none" fill-rule="evenodd">
        <g transform="translate(1.44 28.178)">
            <mask id="b" fill="#fff">
                <use xlink:href="#a"/>
            </mask>
            <path fill="#FEFEFE" d="M6.331.11L.511 11.4a2.124 2.124 0 0 0 .898 2.856c.322.168.668.245 1.006.238a2.101 2.101 0 0 0 1.83-1.142l6.128-11.886c-.077-.018-.158-.034-.235-.051A19.355 19.355 0 0 1 6.331.11" mask="url(#b)"/>
        </g>
        <path fill="#FEFEFE" d="M46.195 38.737l-9.81-17.387c-2.378 2.181-4.842 3.97-7.385 5.361 6.255 5.897 12.132 12.42 13.746 14.425a2.084 2.084 0 0 0 2.816.389 2.128 2.128 0 0 0 .633-2.788"/>
        <g transform="translate(5.279 .156)">
            <mask id="d" fill="#fff">
                <use xlink:href="#c"/>
            </mask>
            <path fill="#FEFEFE" d="M19.937 1.399a2.103 2.103 0 0 0-1.87-1.071A2.102 2.102 0 0 0 16.24 1.47l-5.29 10.259c-1.2-.616-2.733-2.088-6.096-1.986 0 0-5.63.77-4.694 5.378 0 0-.926-4.009 8.845.38v.001l-3.339 6.444c.669.264 1.089.883 4.048 1.376l2.954-5.73c1.975 1.197 3.662 1.845 5.999 3.84.395-.168 4.544-1.656 9.059-6.23L19.936 1.4z" mask="url(#d)"/>
        </g>
        <path fill="#FEFEFE" d="M60.356 28.233a5.37 5.37 0 0 0 1.92-1.999c.47-.837.704-1.75.704-2.738a5.57 5.57 0 0 0-.704-2.77 5.382 5.382 0 0 0-1.92-1.999 5.01 5.01 0 0 0-2.656-.74 5.01 5.01 0 0 0-2.657.74 5.5 5.5 0 0 0-1.936 1.998 5.468 5.468 0 0 0-.72 2.771c0 .989.24 1.901.72 2.738a5.488 5.488 0 0 0 1.936 1.999 5.01 5.01 0 0 0 2.657.74 5.01 5.01 0 0 0 2.656-.74m5.025-12.246c.277.28.416.624.416 1.032V29.94c0 .409-.14.753-.416 1.032-.278.279-.62.419-1.025.419-.405 0-.747-.14-1.024-.42a1.406 1.406 0 0 1-.415-1.03v-1.128a8.001 8.001 0 0 1-2.593 2.126 6.906 6.906 0 0 1-3.2.773 6.967 6.967 0 0 1-3.825-1.111c-1.163-.741-2.086-1.74-2.768-2.996-.684-1.257-1.025-2.626-1.025-4.109 0-1.503.341-2.884 1.025-4.14.682-1.258 1.605-2.256 2.768-2.996a6.964 6.964 0 0 1 3.825-1.113 6.9 6.9 0 0 1 3.2.774 7.995 7.995 0 0 1 2.593 2.126v-1.128c0-.408.138-.751.415-1.032a1.389 1.389 0 0 1 1.024-.417c.405 0 .747.14 1.025.417M75.206 31.648a1.34 1.34 0 0 1-.736-.226 1.556 1.556 0 0 1-.545-.58l-6.4-13.243a1.305 1.305 0 0 1-.16-.644c0-.279.068-.536.208-.773.138-.236.336-.408.591-.516.257-.107.47-.161.641-.161.277 0 .533.07.768.21.234.14.404.338.512.595l5.152 10.602 5.121-10.602c.129-.257.31-.456.544-.595.235-.14.48-.21.736-.21.427 0 .774.145 1.04.435.267.29.4.628.4 1.015 0 .237-.042.45-.127.644l-6.401 13.18c-.128.321-.374.568-.736.74-.256.086-.459.13-.608.13M87.687 19.29c-.917.871-1.483 1.95-1.696 3.24h9.825c-.212-1.29-.783-2.369-1.712-3.24-.928-.87-2-1.304-3.216-1.304-1.216 0-2.283.435-3.201 1.305m7.154-2.931a8.108 8.108 0 0 1 2.864 2.996 8.261 8.261 0 0 1 1.056 4.107v.355a1.435 1.435 0 0 1-.448.983c-.278.27-.608.402-.992.402H86.12c.298 1.204.907 2.133 1.824 2.788.918.655 2.05.983 3.393.983.724 0 1.499-.108 2.32-.323a12 12 0 0 0 2.384-.902 1.283 1.283 0 0 1 1.424.307c.267.268.401.595.401.982 0 .279-.08.531-.24.757-.16.226-.369.393-.625.5-1.92.945-3.807 1.417-5.664 1.417-1.643 0-3.089-.338-4.337-1.014a7.196 7.196 0 0 1-2.912-2.884c-.694-1.246-1.04-2.695-1.04-4.35 0-1.482.351-2.853 1.055-4.108a8.097 8.097 0 0 1 2.865-2.996 7.334 7.334 0 0 1 3.921-1.113c1.43 0 2.747.37 3.953 1.113M112.779 16.198a7.117 7.117 0 0 1 2.544 2.562c.63 1.074.945 2.255.945 3.544v7.636c0 .409-.14.752-.416 1.032-.278.278-.62.419-1.024.419a1.39 1.39 0 0 1-1.025-.42 1.406 1.406 0 0 1-.416-1.03V22.98c0-.902-.215-1.734-.64-2.496a4.912 4.912 0 0 0-1.745-1.82 4.533 4.533 0 0 0-2.416-.678c-.876 0-1.686.225-2.432.677a4.858 4.858 0 0 0-1.76 1.82 5.024 5.024 0 0 0-.64 2.497v6.96c0 .409-.14.752-.416 1.032a1.39 1.39 0 0 1-1.025.419c-.406 0-.748-.14-1.024-.42a1.404 1.404 0 0 1-.416-1.03V17.018c0-.408.139-.75.416-1.032a1.386 1.386 0 0 1 1.024-.418c.405 0 .747.14 1.025.418.276.281.415.624.415 1.032v.87a7.198 7.198 0 0 1 2.417-1.933 6.82 6.82 0 0 1 3.088-.709c1.28 0 2.453.317 3.521.95M128.525 28.556a6.04 6.04 0 0 0 1.76-1.097c.234-.193.512-.29.832-.29.385 0 .71.135.977.403.266.269.4.585.4.95 0 .43-.16.785-.48 1.064a8.29 8.29 0 0 1-2.528 1.547 7.99 7.99 0 0 1-2.913.548 7.916 7.916 0 0 1-4.113-1.112 8.33 8.33 0 0 1-2.976-2.997 7.992 7.992 0 0 1-1.104-4.109c0-1.481.368-2.851 1.104-4.108a8.31 8.31 0 0 1 2.976-2.996c1.249-.742 2.618-1.112 4.113-1.112 1.023 0 2 .183 2.928.548.928.366 1.766.891 2.513 1.579.32.259.48.602.48 1.031 0 .386-.134.714-.4.982a1.32 1.32 0 0 1-.977.403c-.3 0-.576-.106-.832-.322a6.065 6.065 0 0 0-1.76-1.095 5.19 5.19 0 0 0-1.952-.387c-.96 0-1.846.248-2.656.741a5.491 5.491 0 0 0-1.936 1.998c-.48.837-.72 1.75-.72 2.738s.24 1.902.72 2.74a5.495 5.495 0 0 0 1.936 1.997c.81.494 1.696.741 2.656.741.662 0 1.312-.128 1.952-.385M139.247 19.29c-.917.871-1.484 1.95-1.697 3.24h9.825c-.212-1.29-.783-2.369-1.712-3.24-.928-.87-2-1.304-3.216-1.304-1.216 0-2.283.435-3.2 1.305m7.152-2.931a8.1 8.1 0 0 1 2.865 2.996 8.271 8.271 0 0 1 1.056 4.107v.355c-.022.387-.17.715-.448.983-.278.27-.608.402-.992.402h-11.202c.299 1.204.906 2.133 1.824 2.788.918.655 2.05.983 3.394.983.724 0 1.498-.108 2.32-.323.82-.214 1.616-.515 2.384-.902a1.286 1.286 0 0 1 1.424.307c.267.268.4.595.4.982 0 .279-.08.531-.24.757a1.41 1.41 0 0 1-.625.5c-1.92.945-3.808 1.417-5.663 1.417-1.644 0-3.09-.338-4.337-1.014a7.198 7.198 0 0 1-2.913-2.884c-.694-1.246-1.04-2.695-1.04-4.35 0-1.482.352-2.853 1.056-4.108a8.095 8.095 0 0 1 2.864-2.996 7.338 7.338 0 0 1 3.921-1.113c1.43 0 2.746.37 3.952 1.113M160.993 15.682c.29.29.432.64.432 1.047 0 .367-.122.688-.368.967-.245.28-.549.44-.912.484-1.366.15-2.512.735-3.44 1.755-.929 1.021-1.392 2.336-1.392 3.948v6.057c0 .409-.14.752-.416 1.032a1.39 1.39 0 0 1-1.024.419 1.39 1.39 0 0 1-1.026-.419 1.41 1.41 0 0 1-.415-1.032V16.987c0-.387.139-.724.415-1.015.278-.29.62-.435 1.026-.435.404 0 .746.145 1.024.435.277.29.416.628.416 1.015v.709a7.446 7.446 0 0 1 2.144-1.756c.81-.44 1.631-.671 2.465-.692.426 0 .783.144 1.071.434"/>
        <g transform="translate(162.204 15.133)">
            <mask id="f" fill="#fff">
                <use xlink:href="#e"/>
            </mask>
            <path fill="#FEFEFE" d="M11.128 13.1a5.372 5.372 0 0 0 1.92-1.999c.47-.837.704-1.75.704-2.738 0-1.01-.235-1.934-.704-2.77a5.384 5.384 0 0 0-1.92-1.999 5.015 5.015 0 0 0-2.657-.74 5.01 5.01 0 0 0-2.656.74 5.502 5.502 0 0 0-1.937 1.998 5.472 5.472 0 0 0-.72 2.771c0 .989.24 1.901.72 2.738A5.49 5.49 0 0 0 5.815 13.1a5.01 5.01 0 0 0 2.656.74c.96 0 1.845-.246 2.657-.74M16.152.854c.277.28.416.624.416 1.032v12.921c0 .409-.139.752-.416 1.032a1.387 1.387 0 0 1-1.025.419c-.405 0-.746-.14-1.023-.42a1.406 1.406 0 0 1-.416-1.03V13.68a7.991 7.991 0 0 1-2.593 2.126 6.904 6.904 0 0 1-3.2.773 6.967 6.967 0 0 1-3.824-1.111c-1.165-.741-2.086-1.74-2.77-2.996C.62 11.215.279 9.846.279 8.363c0-1.504.34-2.884 1.024-4.14.683-1.258 1.604-2.256 2.769-2.997A6.963 6.963 0 0 1 7.894.114c1.132 0 2.198.258 3.201.774a7.985 7.985 0 0 1 2.593 2.126V1.886c0-.408.138-.751.416-1.032a1.388 1.388 0 0 1 1.023-.417c.407 0 .749.14 1.025.417" mask="url(#f)"/>
        </g>
        <g transform="translate(0 2.088)">
            <mask id="h" fill="#fff">
                <use xlink:href="#g"/>
            </mask>
            <path fill="#FEFEFE" d="M48.966 8.476a62.292 62.292 0 0 0-2.1-7.61.782.782 0 0 0-1.036-.494 49.418 49.418 0 0 1-6.99 2.015.952.952 0 0 0-.741 1.063c.06.406.113.817.162 1.228.03.24.148.452.336.596.187.142.423.2.662.155a51.534 51.534 0 0 0 2.422-.5c-.008.011-.018.019-.025.03-4.873 7.258-10.236 12.334-15.939 15.085-5.665 2.733-10.336 2.578-13.226 1.833-6.97-1.797-8.147-5.646-8.274-6.836-.695-6.524 2.832-7.246 3.791-7.323-1.52.048-2.895.374-4.126 1.07-2.842 1.606-4.23 4.22-3.808 7.17.644 4.504 5.363 8.636 11.476 10.048 1.438.332 3.22.58 5.278.54 3.038-.057 6.678-.738 10.709-2.68 6.386-3.082 12.31-8.645 17.606-16.535.028-.042.045-.087.07-.13.031-.044.063-.089.09-.138.209.91.397 1.833.567 2.769a.8.8 0 0 0 .392.577c.207.114.457.12.707.017.424-.175.848-.358 1.272-.546.227-.101.43-.29.568-.528.16-.277.217-.598.157-.876" mask="url(#h)"/>
        </g>
    </g>
</svg>
