<svg xmlns="http://www.w3.org/2000/svg" width="144" height="124" viewBox="0 0 144 124">
    <g fill="none" fill-rule="evenodd">
        <path fill="#FFD32A" d="M22.639 81.234L5.682 114.05c-1.562 3.017-.389 6.738 2.617 8.304.937.488 1.945.71 2.932.69a6.122 6.122 0 0 0 5.33-3.32l17.854-34.552c-.225-.052-.463-.098-.685-.147a56.47 56.47 0 0 1-11.091-3.792M134.578 111.605l-28.58-50.541c-6.925 6.34-14.106 11.542-21.513 15.584 18.221 17.143 35.343 36.104 40.046 41.931 2.002 2.48 5.59 2.948 8.203 1.131a6.177 6.177 0 0 0 1.844-8.105M73.46 3.519A6.13 6.13 0 0 0 68.014.405a6.126 6.126 0 0 0-5.324 3.319L47.28 33.547c-3.496-1.79-7.963-6.07-17.76-5.771 0 0-16.399 2.235-13.674 15.633 0 0-2.698-11.654 25.768 1.104l-.001.003-9.727 18.732c1.95.767 3.172 2.567 11.794 4l8.605-16.657c5.755 3.48 10.667 5.363 17.476 11.161 1.15-.486 13.24-4.812 26.391-18.107L73.46 3.52z"/>
        <path fill="#231F20" d="M23.33 27.506c.23-.01.457-.023.69-.026 0 0-.257-.007-.69.026"/>
        <path fill="#FFD32A" d="M142.652 29.71a180.773 180.773 0 0 0-6.119-22.124c-.452-1.3-1.756-1.902-3.018-1.436a144.208 144.208 0 0 1-20.362 5.858 2.776 2.776 0 0 0-2.161 3.089c.173 1.182.331 2.375.474 3.572.084.698.429 1.314.977 1.733a2.437 2.437 0 0 0 1.93.45c2.348-.424 4.702-.911 7.054-1.453-.021.032-.05.055-.071.088-14.198 21.099-29.82 35.854-46.434 43.851-16.504 7.943-30.113 7.495-38.532 5.326-20.307-5.223-23.735-16.411-24.105-19.87-2.023-18.964 8.251-21.065 11.044-21.287-4.43.138-8.433 1.087-12.019 3.11C3.031 35.285-1.014 42.885.217 51.46 2.09 64.552 15.84 76.56 33.648 80.669c4.19.966 9.38 1.684 15.378 1.568 8.85-.165 19.454-2.143 31.196-7.79 18.605-8.958 35.862-25.13 51.292-48.065.082-.122.131-.254.204-.38a4.21 4.21 0 0 0 .264-.4c.606 2.645 1.155 5.33 1.649 8.048.135.75.54 1.35 1.142 1.68.604.329 1.332.348 2.06.05 1.236-.512 2.47-1.043 3.707-1.588.661-.295 1.251-.843 1.655-1.535.463-.808.63-1.739.457-2.548"/>
    </g>
</svg>
